<?xml version="1.0" encoding="utf-8"?>
<!-- Generator: Adobe Illustrator 19.0.0, SVG Export Plug-In . SVG Version: 6.00 Build 0)  -->
<svg version="1.1" id="Layer_1" xmlns="http://www.w3.org/2000/svg" xmlns:xlink="http://www.w3.org/1999/xlink" x="0px" y="0px"
	 viewBox="-115 58.7 25 25" style="enable-background:new -115 58.7 25 25;" xml:space="preserve">
<style type="text/css">
	.st0{fill:#2C3E50;}
</style>
<g>
	<g id="Outline_Color_copy_2_2_">
		<path class="st0" d="M-93.1,59.5c1.3,0,2.3,1.1,2.3,2.3v18.7c0,1.3-1.1,2.3-2.3,2.3h-18.8c-1.3,0-2.3-1.1-2.3-2.3V61.8
			c0-1.3,1.1-2.3,2.3-2.3H-93.1 M-93.1,58.7h-18.8c-1.7,0-3.1,1.4-3.1,3.1v18.7c0,1.8,1.4,3.2,3.1,3.2h18.7c1.7,0,3.1-1.4,3.1-3.1
			V61.8C-90,60.1-91.4,58.7-93.1,58.7L-93.1,58.7z"/>
	</g>
	<path id="VK" class="st0" d="M-101.7,76.7c0.6,0,0.6-0.9,0.6-1.2c0-0.6,0.6-1.2,1.1-1.2s1.5,1.1,2.2,1.9c0.6,0.6,0.6,0.6,1.1,0.6
		c0.6,0,1.7,0,1.7,0s1.1,0,1.1-1.2c0-0.4-0.4-1-1.7-2.5c-1.1-1.2-1.7-0.6,0-3.1c1-1.5,1.8-2.9,1.6-3.3c-0.1-0.4-3-1-3.3-0.4
		c-1.1,1.9-1.3,2.3-1.7,3.1c-0.6,1.2-0.6,1.9-1.1,1.9s-0.6-1.2-0.6-1.9c0-2.1,0.3-3.5-0.6-3.7c0,0-1.1,0-1.7,0
		c-0.9,0-1.7,0.6-1.7,0.6s-0.5,0.4-0.4,0.4c0.2,0,1.1-0.2,1.1,0.6c0,0.6,0,1.2,0,1.2s0,2.5-0.6,2.5s-1.7-2.5-2.8-4.4
		c-0.4-0.6-0.5-0.5-1-0.5c-0.6,0-1.1,0-1.7,0s-0.6,0.4-0.6,0.6c1.1,3.1,1.9,5.1,4,7.5c1.9,2.3,3.2,2.4,4.3,2.4
		C-102,76.7-102.3,76.7-101.7,76.7z"/>
</g>
</svg>
