<?xml version="1.0" encoding="utf-8"?>
<!-- Generator: Adobe Illustrator 19.2.1, SVG Export Plug-In . SVG Version: 6.00 Build 0)  -->
<svg version="1.1"
	 id="svg2" xmlns:cc="http://creativecommons.org/ns#" xmlns:dc="http://purl.org/dc/elements/1.1/" xmlns:inkscape="http://www.inkscape.org/namespaces/inkscape" xmlns:rdf="http://www.w3.org/1999/02/22-rdf-syntax-ns#" xmlns:sodipodi="http://sodipodi.sourceforge.net/DTD/sodipodi-0.dtd" xmlns:svg="http://www.w3.org/2000/svg"
	 xmlns="http://www.w3.org/2000/svg" xmlns:xlink="http://www.w3.org/1999/xlink" x="0px" y="0px" viewBox="0 0 32 32"
	 style="enable-background:new 0 0 32 32;" xml:space="preserve">
<style type="text/css">
	.st0{fill:#2C3E50;}
</style>
<script  id="script3301" xlink:href=""></script>
<script  id="script3299" xlink:href=""></script>
<g id="g3123" transform="matrix(0.64050449,0,0,0.64031522,0,25.600003)">
	<path id="path3125" class="st0" d="M0,5.4v-40.8C0-37.9,2-40,4.6-40h40.8c2.5,0,4.6,2,4.6,4.6V5.4c0,2.5-2,4.6-4.6,4.6H4.6
		C2,10,0,7.9,0,5.4z M48.4,5.4v-40.8c0-1.7-1.3-3-3-3H4.6c-1.7,0-3,1.3-3,3V5.4c0,1.7,1.3,3,3,3h40.8C47.1,8.4,48.4,7.1,48.4,5.4z"
		/>
	<path id="path3127" class="st0" d="M6.6-1.3C5.9-1.7,6.3-2.8,7.1-2.7c0.6,0.1,1.2,0.1,1.7,0.1c2.6,0,5-0.6,7.1-1.8l0.3-0.2
		l-0.5-0.1c-2.5-0.9-4.5-2.8-5.3-5.3c-0.1-0.4,0.1-0.8,0.5-1l0.4,0l-0.6-0.4c-1.8-1.5-2.9-3.8-2.9-6.3v-0.1c0-0.6,0.6-1,1.2-0.7
		l0.5,0.2c-1-1.4-1.6-3-1.6-4.8c0-1.5,0.4-2.9,1.2-4.2c0.3-0.5,0.9-0.5,1.3-0.1c3.2,3.8,7.8,6.5,13,7.3l1.3,0.1l0-0.8
		c0-4.6,3.8-8.3,8.5-8.3c1.8,0,3.5,0.6,4.9,1.5l0.9,0.8l0.9-0.2c1.2-0.3,2.3-0.8,3.4-1.4c0.6-0.4,1.4,0.2,1.1,0.9
		c-0.3,0.9-0.7,1.8-1.3,2.6l-0.4,0.5l2.1-0.1c0.6,0,1,0.7,0.7,1.2c-0.9,1.3-2,1.7-3,2.3l-0.7,0.4l0,0.5c0,10.3-8,22.1-22.6,22.1
		C14.3,2.2,10.1,0.9,6.6-1.3z M39.9-19.9c0-0.3,0-0.6,0-0.9c0-0.3,0.1-0.5,0.3-0.7c0.8-0.6,1.6-0.9,2.2-1.3l-2,0.1
		c-0.8,0-1.1-1-0.4-1.5c0.7-0.4,1.2-0.9,1.7-1.6l0.2-0.3l-0.5,0.2c-0.9,0.3-1.7,0.6-2.7,0.7c-0.3,0-0.5,0-0.7-0.2
		c-1.3-1.3-3-2.1-5-2.1c-3.8,0-6.9,3-6.9,6.7c0,0.5,0.1,1,0.2,1.5c0.1,0.5-0.3,1-0.8,1c-5.8-0.3-11-2.7-14.8-6.4l-0.8-0.8l-0.2,0.6
		c-0.2,0.6-0.2,1.2-0.2,1.8c0,2.3,1.2,4.4,3.1,5.6c0.7,0.4,0.3,1.5-0.5,1.4c-0.7,0-1.4-0.1-2-0.3l-0.6-0.2c0.5,2.7,2.7,4.9,5.4,5.4
		c0.8,0.2,0.8,1.3,0,1.5c-0.7,0.2-1.5,0.3-2.2,0.3l-0.2,0l0.4,0.7c1.2,1.7,3.2,2.8,5.5,2.8c0.7,0,1,1,0.5,1.4
		c-2.1,1.6-4.5,2.7-7.2,3.1l-1.3,0.2l1.1,0.4c2.3,0.8,4.8,1.3,7.4,1.3C32.4,0.6,39.9-10.4,39.9-19.9z"/>
</g>
</svg>
