<?xml version="1.0" encoding="utf-8"?>
<!-- Generator: Adobe Illustrator 19.2.1, SVG Export Plug-In . SVG Version: 6.00 Build 0)  -->
<svg version="1.1"
	 id="svg2" xmlns:cc="http://creativecommons.org/ns#" xmlns:dc="http://purl.org/dc/elements/1.1/" xmlns:inkscape="http://www.inkscape.org/namespaces/inkscape" xmlns:rdf="http://www.w3.org/1999/02/22-rdf-syntax-ns#" xmlns:sodipodi="http://sodipodi.sourceforge.net/DTD/sodipodi-0.dtd" xmlns:svg="http://www.w3.org/2000/svg"
	 xmlns="http://www.w3.org/2000/svg" xmlns:xlink="http://www.w3.org/1999/xlink" x="0px" y="0px" viewBox="0 0 32 32"
	 style="enable-background:new 0 0 32 32;" xml:space="preserve">
<style type="text/css">
	.st0{fill:#2C3E50;}
</style>
<script  id="script3301" xlink:href=""></script>
<script  id="script3299" xlink:href=""></script>
<g id="g3174" transform="matrix(0.64050449,0,0,0.64031522,0,25.600003)">
	<path id="path3176" class="st0" d="M23.3,9v-19.4h-3.5c-0.4,0-0.8-0.3-0.8-0.8V-17c0-0.5,0.4-0.8,0.8-0.8l3.5,0v-3.1
		c0-1.6,0-4.6,1.6-6.5c1.6-1.9,3.7-3.2,7.3-3.2c5.5,0,7.9,0.7,7.9,0.8c0.4,0.1,0.6,0.5,0.5,0.9L39.5-23c-0.1,0.4-0.5,0.7-1,0.6
		c0,0-1.7-0.5-3.3-0.5c-0.9,0-2.4,0.2-2.4,1.3v3.7H39c0.5,0,0.8,0.4,0.8,0.8l-0.5,5.8c0,0.4-0.4,0.7-0.8,0.7h-5.6V9
		c0,0.4-0.4,0.8-0.8,0.8H24C23.6,9.8,23.3,9.4,23.3,9z M31.3,8.2v-19.4c0-0.4,0.3-0.8,0.8-0.8h5.7l0.3-4.2h-6
		c-0.4,0-0.8-0.3-0.8-0.8v-4.5c0-1.1,0.6-1.9,1.4-2.3c0.8-0.4,1.7-0.6,2.6-0.6c0.9,0,1.8,0.1,2.5,0.3l0.3,0.1l0.8-4.4l-0.2,0
		c-1.1-0.2-3.2-0.5-6.5-0.5C29-29,27.3-28,26-26.4c-1.1,1.4-1.2,3.7-1.2,5.5v3.9c0,0.4-0.4,0.8-0.8,0.8h-3.5v4.2H24
		c0.4,0,0.8,0.4,0.8,0.8V8.2H31.3z"/>
	<path id="path3178" class="st0" d="M0,5.4v-40.8C0-37.9,2-40,4.6-40h40.8c2.5,0,4.6,2,4.6,4.6V5.4c0,2.5-2,4.6-4.6,4.6H4.6
		C2,10,0,7.9,0,5.4z M48.4,5.4v-40.8c0-1.7-1.3-3-3-3H4.6c-1.7,0-3,1.3-3,3V5.4c0,1.7,1.3,3,3,3h40.8C47.1,8.4,48.4,7.1,48.4,5.4z"
		/>
</g>
</svg>
