<?xml version="1.0" encoding="utf-8"?>
<!-- Generator: Adobe Illustrator 19.2.1, SVG Export Plug-In . SVG Version: 6.00 Build 0)  -->
<svg version="1.1"
	 id="svg2" xmlns:cc="http://creativecommons.org/ns#" xmlns:dc="http://purl.org/dc/elements/1.1/" xmlns:inkscape="http://www.inkscape.org/namespaces/inkscape" xmlns:rdf="http://www.w3.org/1999/02/22-rdf-syntax-ns#" xmlns:sodipodi="http://sodipodi.sourceforge.net/DTD/sodipodi-0.dtd" xmlns:svg="http://www.w3.org/2000/svg"
	 xmlns="http://www.w3.org/2000/svg" xmlns:xlink="http://www.w3.org/1999/xlink" x="0px" y="0px" viewBox="0 0 32 32"
	 style="enable-background:new 0 0 32 32;" xml:space="preserve">
<style type="text/css">
	.st0{fill:#2C3E50;}
</style>
<script  id="script3301" xlink:href=""></script>
<script  id="script3299" xlink:href=""></script>
<g id="g3396" transform="matrix(0.64050449,0,0,0.64031522,0,25.600003)">
	<path id="path3398" class="st0" d="M33-3.6l-3.1-3.9c-0.2-0.2-0.3-0.3-0.4-0.4L29.4-8l0,0.1l-0.7,3.2l-0.1,0.7
		c-0.2,0.7-0.6,1.4-1.5,1.5l-0.5,0h-3.6c-6.4,0-12.2-9.1-16.2-20.4l0-0.1c-0.1-0.7-0.2-1.4,0.1-2C7.1-25.8,7.8-26,8.6-26l5.5,0
		c0.3,0,0.6,0.2,0.7,0.6c1.2,4.1,2.8,6.6,4.6,9.4l0.1,0.1c0.2,0.4,0.6,0.3,0.8,0l0.1-0.4l0-6.4c0-0.9-0.4-1.1-1.5-1.2
		c-0.5-0.1-0.8-0.5-0.6-1c0.5-1.6,2.1-2.4,4.4-2.4l2.1,0c1.7,0,3.2,0.7,3.2,2.9v8.4l0.1,0.1c0.3,0.1,0.8,0.1,1.3-0.6
		c1.9-2.7,4.1-5.9,4.4-7.6c0-0.1,0-0.1,0.1-0.2c0.4-0.8,1.5-1.4,1.9-1.5c0.1,0,0.2-0.1,0.3-0.1l5.7,0l0.4,0c0.1,0,0.3,0,0.4,0.1
		c0.3,0.1,0.6,0.4,0.7,0.6c0.3,0.5,0.3,1.1,0.3,1.3c0,0.1,0,0.2,0,0.2c-0.5,3.4-4.4,7.2-6,9.6c-0.4,0.6-0.4,1,0,1.5l5.4,6.8
		C43.8-5,43.8-4,43.1-3.3c-0.4,0.5-1.1,0.7-1.7,0.8l-0.6,0H35l0.1,0c-0.8,0.1-1.3-0.2-1.8-0.7L33-3.6z M35-4.1l5.8,0
		c0.6,0,1-0.2,1.2-0.3c0.1-0.1,0.1-0.2,0.1-0.4L41.9-5l-5.4-6.7c-0.9-1.1-0.8-2.3,0-3.4c1.6-2.3,4.9-5.7,5.7-8.4l0.1-0.5l0-0.3
		l0-0.2h-0.2h-5.7l-0.2,0.1c-0.2,0.1-0.4,0.2-0.5,0.4l-0.2,0.2l-0.2,0.7c-0.7,1.9-2.3,4.4-3.8,6.4l-0.7,1l-0.4,0.5
		c-1.1,1.1-2.8,0.9-3.5,0c-0.2-0.2-0.3-0.5-0.3-0.8v-8.5c0-1-0.5-1.3-1.7-1.3l-2.1,0c-1,0-1.7,0.2-2.2,0.4l-0.3,0.2l0.2,0.1
		c0.8,0.3,1.5,1,1.5,2.4l0,6.5c-0.1,2-2.6,2.9-3.7,1.3l-0.1-0.3c-1.7-2.5-3.1-4.9-4.3-8.3l-0.3-1l-4.9,0c-0.5,0-0.5,0.1-0.5,0.1
		c0,0.1-0.1,0.2,0,0.6l0.1,0.4l0.8,2.1c4,10.4,9.1,17.3,13.9,17.3l3.6,0C26.9-4,27-4.6,27.1-5l0-0.1l0.7-3.2l0-0.1
		c0.1-0.3,0.3-0.6,0.5-0.8c0.3-0.3,0.7-0.4,1.2-0.4c0.6,0.1,1.2,0.5,1.6,1.1l3.1,4c0.3,0.5,0.5,0.5,0.7,0.5L35-4.1z"/>
	<path id="path3400" class="st0" d="M0,5.4v-40.8C0-37.9,2-40,4.6-40h40.8c2.5,0,4.6,2,4.6,4.6V5.4c0,2.5-2,4.6-4.6,4.6H4.6
		C2,10,0,7.9,0,5.4z M48.4,5.4v-40.8c0-1.7-1.3-3-3-3H4.6c-1.7,0-3,1.3-3,3V5.4c0,1.7,1.3,3,3,3h40.8C47.1,8.4,48.4,7.1,48.4,5.4z"
		/>
</g>
</svg>
