<?xml version="1.0" encoding="utf-8"?>
<!-- Generator: Adobe Illustrator 19.2.1, SVG Export Plug-In . SVG Version: 6.00 Build 0)  -->
<svg version="1.1" id="Layer_1" xmlns="http://www.w3.org/2000/svg" xmlns:xlink="http://www.w3.org/1999/xlink" x="0px" y="0px"
	 viewBox="0 0 99 20.3" style="enable-background:new 0 0 99 20.3;" xml:space="preserve">
<style type="text/css">
	.st0{fill:#2C3E50;}
	.st1{fill:#FFFFFF;}
</style>
<g>
	<path class="st0" d="M8.7,1L6,4.6v0.1l4.4-0.6v2L6,5.6v0.1l2.8,3.5l-1.8,1.1L5.2,6.1H5.1l-1.9,4.1L1.5,9.2l2.8-3.6V5.5L0,6.1v-2
		l4.3,0.6V4.6L1.5,1.1l1.8-1l1.8,4.1h0.1L7,0L8.7,1z"/>
	<path class="st0" d="M13.1,16.9c1.1,0.7,2.8,1.3,4.6,1.3c2.6,0,4.1-1.4,4.1-3.4c0-1.8-1.1-2.9-3.7-3.9c-3.2-1.1-5.2-2.8-5.2-5.6
		c0-3.1,2.5-5.3,6.4-5.3c2,0,3.5,0.5,4.4,1L22.9,3c-0.6-0.4-2-0.9-3.7-0.9c-2.7,0-3.7,1.6-3.7,2.9c0,1.8,1.2,2.7,3.9,3.8
		c3.3,1.3,5,2.9,5,5.8c0,3-2.2,5.7-6.9,5.7c-1.9,0-4-0.6-5-1.3L13.1,16.9z"/>
	<path class="st0" d="M38.1,10.8h-7.6v7.1h8.5V20H27.9V0.3h10.6v2.1h-8.1v6.2h7.6V10.8z"/>
	<path class="st1" d="M41.3,20v-1.6l2-2c4.8-4.6,7-7.1,7.1-9.9c0-1.9-0.9-3.7-3.8-3.7c-1.7,0-3.2,0.9-4,1.6l-0.8-1.8
		c1.3-1.1,3.2-1.9,5.4-1.9c4.1,0,5.8,2.8,5.8,5.5c0,3.5-2.5,6.3-6.5,10.2l-1.5,1.4v0.1h8.5V20H41.3z"/>
	<path class="st1" d="M68.9,10.3c0,6.5-2.4,10-6.6,10c-3.7,0-6.2-3.5-6.3-9.8c0-6.4,2.7-9.9,6.6-9.9C66.7,0.7,68.9,4.3,68.9,10.3z
		 M58.6,10.6c0,4.9,1.5,7.7,3.9,7.7c2.6,0,3.9-3.1,3.9-7.9c0-4.7-1.2-7.7-3.9-7.7C60.3,2.7,58.6,5.4,58.6,10.6z"/>
	<path class="st1" d="M76.9,3.4L76.9,3.4l-3.4,1.8l-0.5-2L77.2,1h2.2v19h-2.5V3.4z"/>
	<path class="st1" d="M97.1,2.8c-0.5,0-1.2,0-1.9,0.1c-4,0.7-6.2,3.6-6.6,6.7h0.1c0.9-1.2,2.5-2.2,4.6-2.2c3.4,0,5.7,2.4,5.7,6.1
		c0,3.5-2.4,6.7-6.3,6.7c-4.1,0-6.7-3.2-6.7-8.1c0-3.7,1.3-6.7,3.2-8.6c1.6-1.5,3.7-2.5,6.1-2.8c0.8-0.1,1.4-0.1,1.9-0.1V2.8z
		 M96.4,13.8c0-2.7-1.5-4.4-3.9-4.4c-1.5,0-3,1-3.7,2.3c-0.2,0.3-0.3,0.7-0.3,1.1c0.1,3.1,1.5,5.4,4.2,5.4
		C94.9,18.3,96.4,16.5,96.4,13.8z"/>
</g>
</svg>
